<svg version="1.1" xmlns="http://www.w3.org/2000/svg" viewBox="0 0 837 587" width="837" height="587">
  <!-- svg-source:excalidraw -->
  
  <defs>
    <style>
      @font-face {
        font-family: "Virgil";
        src: url("https://excalidraw.com/Virgil.woff2");
      }
      @font-face {
        font-family: "Cascadia";
        src: url("https://excalidraw.com/Cascadia.woff2");
      }
    </style>
  </defs>
  <rect x="0" y="0" width="837" height="587" fill="#ffffff"></rect><g stroke-linecap="round" transform="translate(10 10) rotate(0 186.5 283.5)"><path d="M-0.57 0.27 C102.41 0.1, 204.81 -1.18, 372.29 -0.12 M-0.26 0.6 C122.84 0.04, 245.2 0.32, 372.77 0.37 M373.02 0.34 C370.81 216.33, 372.17 434.21, 373.76 567.12 M373.23 0.33 C371.94 157.38, 371.41 315.24, 373.34 567.26 M372.31 567.63 C274.34 566.54, 172.87 565.79, -0.49 567.01 M372.85 566.76 C289.49 564.92, 205.67 565.5, 0.25 567.35 M0.08 567 C-0.39 433.71, -0.64 300.89, 0.49 -0.67 M0.38 566.89 C-0.4 343.36, -0.98 118.96, 0.14 -0.31" stroke="#000000" stroke-width="1" fill="none"></path></g><g stroke-opacity="0.8" fill-opacity="0.8" transform="translate(36 34) rotate(0 157.20000000000005 42)"><text x="0" y="59" font-family="Virgil, Segoe UI Emoji" font-size="66.28710462287115px" fill="#000000" text-anchor="start" style="white-space: pre;" direction="ltr">BACKEND</text></g><g stroke-opacity="0.8" fill-opacity="0.8" stroke-linecap="round" transform="translate(467.578125 138.75) rotate(0 170 52)"><path d="M-0.78 1.15 C114.8 -1.07, 228.02 0.82, 340.9 -0.59 M0.24 -0.2 C132.24 2.18, 264.81 1.09, 340.58 0.28 M339.47 -0.64 C339.52 32.36, 339.52 61.75, 341.28 105.82 M339.09 -0.32 C339.92 31.5, 338.88 62.58, 340.74 104.55 M340.68 104.42 C209.51 105.31, 80.75 104.27, -1 104.09 M340.27 103.76 C251.94 105.32, 162.91 105.18, -0.42 104.11 M-0.59 102.02 C1.6 78.1, 0.52 51.03, -0.61 -1.6 M-0.77 104.27 C-0.58 62.78, -0.09 20.81, 0.11 0.6" stroke="#000000" stroke-width="1" fill="none"></path></g><g stroke-opacity="0.8" fill-opacity="0.8" stroke-linecap="round" transform="translate(447 10.25) rotate(0 190 282.99999999999994)"><path d="M0.54 0.73 C129.52 -0.38, 258.18 -1.24, 379.43 -0.34 M-0.1 0.39 C117.25 0.65, 234.6 0.72, 380.44 0.25 M379.52 -0.23 C380.67 214.61, 379.72 428.98, 380.43 565.98 M379.91 -0.21 C377.88 128.67, 378.4 257.62, 380.31 565.72 M380.54 565.98 C229.06 563.8, 78.94 564.46, -0.58 565.53 M379.44 565.84 C296.59 565.71, 213.06 566.1, -0.18 566.33 M0.48 566.73 C-1.25 377.53, 0.06 188.98, 0.67 0.3 M0.32 566.15 C0.26 342.34, -0.44 119.02, 0.16 0" stroke="#000000" stroke-width="1" fill="none"></path></g><g stroke-opacity="0.7" fill-opacity="0.7" transform="translate(573 157.75) rotate(0 60.5 38)"><text x="0" y="53" font-family="Virgil, Segoe UI Emoji" font-size="59.11111111111111px" fill="#000000" text-anchor="start" style="white-space: pre;" direction="ltr">GUI</text></g><g stroke-opacity="0.8" fill-opacity="0.8" transform="translate(466.00312499999995 34.96875) rotate(0 174.57142857142856 40.065573770491795)"><text x="0" y="56.13114754098358" font-family="Virgil, Segoe UI Emoji" font-size="63.234068578570295px" fill="#000000" text-anchor="start" style="white-space: pre;" direction="ltr">FRONTEND</text></g><g stroke-opacity="0.8" fill-opacity="0.8" stroke-linecap="round" transform="translate(65.203125 164.01388888888874) rotate(0 125.5 56.22222222222226)"><path d="M-0.56 -1.5 C69.77 -0.75, 140.41 -2.98, 252.25 -1.31 M0.12 0.64 C59.26 2.23, 118.75 1.76, 251.12 0.68 M252.4 -0.67 C251.69 34.99, 250.88 71.19, 252.87 110.46 M250.94 0.88 C250.71 42.26, 251.47 85.93, 251.27 112.43 M252.08 112.97 C188.53 113.23, 124.75 110.77, 0.33 111.55 M250.34 113.03 C194.34 112.76, 136.85 111.87, -0.27 112.38 M1.74 111.18 C1.26 82.88, -0.77 56.6, -1.67 -1.5 M0.72 111.8 C1.05 70.92, 0.99 28.85, -0.98 0.42" stroke="#000000" stroke-width="1" fill="none"></path></g><g stroke-opacity="0.8" fill-opacity="0.8" transform="translate(98.203125 179.00961538461536) rotate(0 94.5 22)"><text x="0" y="31" font-family="Virgil, Segoe UI Emoji" font-size="33.92307692307694px" fill="#000000" text-anchor="start" style="white-space: pre;" direction="ltr">SESSION A</text></g><g stroke-opacity="0.8" fill-opacity="0.8" stroke-linecap="round" transform="translate(469.203125 262.125) rotate(0 170 52)"><path d="M-0.32 0.28 C131.13 0.19, 263.35 0.67, 339.94 -0.43 M-0.14 -0.02 C112.04 -0.88, 225.66 -1.39, 339.38 0.19 M340.46 -1.17 C339.42 22.76, 342.03 44.94, 339.78 102.78 M340.69 0.74 C340.44 25.83, 338.95 51.48, 339.43 103.76 M339.08 104.34 C225.47 106.82, 107.97 107.12, 0.34 103.51 M340.61 104.6 C219.94 101.64, 99.51 102.83, 0.29 104.45 M-0.17 105.38 C0.09 76.53, 1.26 46.87, 0.86 1.16 M0.57 103.49 C0.93 79.52, 1.18 54.6, -0.13 0" stroke="#000000" stroke-width="1" fill="none"></path></g><g stroke-opacity="0.7" fill-opacity="0.7" transform="translate(574.625 281.125) rotate(0 61 38)"><text x="0" y="53" font-family="Virgil, Segoe UI Emoji" font-size="59.11111111111111px" fill="#000000" text-anchor="start" style="white-space: pre;" direction="ltr">TUI</text></g><g stroke-opacity="0.7" fill-opacity="0.7" stroke-linecap="round" transform="translate(474.203125 389.125) rotate(0 166.5 43)"><path d="M0.87 -0.05 C76.3 -1.28, 154.44 -2.31, 333.67 -0.89 M-0.58 0.17 C74.3 0.77, 147.4 0.07, 332.61 0.33 M333.02 0.4 C332.53 30.25, 334.11 63.76, 334.32 85.92 M332.54 0.64 C331.57 34.7, 331.42 68.39, 333.06 85.77 M332.67 85.24 C221.62 88.58, 111.33 86.64, -1.06 85.75 M332.73 86.38 C218.77 88.73, 103.84 88.67, -0.51 85.84 M-0.37 86.54 C2.07 66.73, -0.35 49.71, -0.42 0.01 M-0.43 85.5 C0.43 59, -0.35 31.99, 0.2 -0.89" stroke="#000000" stroke-width="1" fill="none"></path></g><g stroke-opacity="0.7" fill-opacity="0.7" transform="translate(546.203125 410.4916666666667) rotate(0 94 25.066666666666663)"><text x="0" y="35.133333333333326" font-family="Virgil, Segoe UI Emoji" font-size="38.99259259259256px" fill="#000000" text-anchor="start" style="white-space: pre;" direction="ltr">BROWSER</text></g><g stroke-linecap="round" transform="translate(137.28065926111526 222.7289869087091) rotate(0 81.57429215735397 21.586319218241044)"><path d="M-1.26 -1.77 C37.46 1.59, 76.94 2.13, 161.42 1.67 M0.5 -0.18 C46.73 -1.07, 92.23 -1.69, 162.62 0.96 M163.47 -0.88 C161.32 14.13, 163.84 29.1, 162.63 45.13 M163.3 0.27 C162.93 11.83, 163.46 25.76, 163.28 43.45 M163.48 41.88 C125.17 42.41, 83.17 45.39, 0.27 42.92 M162.22 42.29 C107.1 43.93, 49.51 42.11, -0.51 42.62 M-0.95 43.82 C-2.09 27.23, 0.86 16.6, -0.67 -0.65 M0.92 42.41 C0.75 31.59, -0.29 19.66, -0.67 -0.83" stroke="#000000" stroke-width="1" fill="none"></path></g><g transform="translate(152.33163506779135 233.51140257271157) rotate(0 68.09533951390637 11.571757041578877)"><text x="0" y="16.14351408315773" font-family="Virgil, Segoe UI Emoji" font-size="17.802703140890557px" fill="#000000" text-anchor="start" style="white-space: pre;" direction="ltr">/code/project-a</text></g><g stroke-linecap="round" transform="translate(77.59453016883378 221.44496807018584) rotate(0 24.285714285714278 20.952380952380906)"><path d="M-0.44 0.85 C15.44 0.63, 28.26 0.96, 48.38 -0.35 M0.17 0.88 C18.2 0.12, 37.17 -0.18, 47.66 -0.16 M47.2 -0.27 C49.96 12.82, 47.56 24.42, 46.95 43.55 M48.81 0.52 C47.92 9.01, 47.81 17.67, 47.85 42.39 M48.9 43.27 C31.48 41.07, 11.64 42.55, 1.11 43.05 M48.17 41.51 C31.21 41.51, 14.33 42.41, 0.21 41.24 M-0.21 40.29 C-1.91 24.8, 0.2 11.09, 1.64 1.32 M-0.07 42.42 C-0.65 33.79, 0.21 24.75, 0.65 0.69" stroke="#000000" stroke-width="1" fill="none"></path></g><g transform="translate(82.30881588311945 230.11163473685247) rotate(0 18.5 13)"><text x="18.5" y="18" font-family="Virgil, Segoe UI Emoji" font-size="20px" fill="#000000" text-anchor="middle" style="white-space: pre;" direction="ltr">LSP</text></g><g stroke-opacity="0.8" fill-opacity="0.8" stroke-linecap="round" transform="translate(67.90603810534185 303.2068728320907) rotate(0 125.5 56.22222222222226)"><path d="M1.23 -0.87 C71.49 -0.89, 142.02 -0.59, 250.72 -0.1 M0.56 0.41 C68.22 2.1, 137.92 1.5, 251.81 -0.55 M249.99 -1.05 C251.56 37.08, 252.84 72.51, 252.24 111.55 M251.18 -0.56 C250.8 34.6, 251.66 67.85, 250.72 112.32 M250.12 113.71 C168.53 110.84, 83.9 113.31, 1.09 110.89 M250.72 112.63 C175.93 112.3, 100.25 112.05, 0.7 112.13 M1.05 111.95 C1.31 69.06, -0.29 26.04, -1.04 -1.7 M-0.23 113.15 C0.2 69.44, 0.21 26.15, 0.58 -0.62" stroke="#000000" stroke-width="1" fill="none"></path></g><g stroke-opacity="0.8" fill-opacity="0.8" transform="translate(100.90603810534185 318.2025993278174) rotate(0 95.5 22)"><text x="0" y="31" font-family="Virgil, Segoe UI Emoji" font-size="33.92307692307694px" fill="#000000" text-anchor="start" style="white-space: pre;" direction="ltr">SESSION B</text></g><g stroke-linecap="round" transform="translate(139.9835723664571 361.9219708519111) rotate(0 81.57429215735397 21.586319218241044)"><path d="M1.57 0.04 C58.27 1.27, 112.26 0.75, 162.64 -0.09 M-0.79 0.42 C35.19 -1.13, 70.89 -1.49, 163.3 0.69 M162.93 1.63 C163.99 18.15, 164.18 32.19, 163.15 43.7 M162.65 0.86 C163.59 9.81, 162.95 18.75, 163.47 43.43 M164.26 42.13 C119.8 46.43, 78.64 42.54, 0.01 44.72 M163.59 43.03 C114.57 43.1, 66.58 43.16, 0.86 43.2 M1.34 43.22 C-0.49 33.22, -1.26 20.64, 1.72 -1.45 M-0.62 43.6 C-0.5 33.27, 0.68 21.63, 0.09 -0.45" stroke="#000000" stroke-width="1" fill="none"></path></g><g transform="translate(158.15954817313332 374.57938651591365) rotate(0 67 11.5)"><text x="0" y="16" font-family="Virgil, Segoe UI Emoji" font-size="17.802703140890557px" fill="#000000" text-anchor="start" style="white-space: pre;" direction="ltr">/code/project-b</text></g><g stroke-linecap="round" transform="translate(80.29744327417575 360.63795201338786) rotate(0 24.285714285714278 20.952380952380906)"><path d="M1.96 0.4 C11.63 -0.13, 23.44 -0.1, 46.86 1.36 M0.24 -0.32 C18 -0.88, 34.16 0.49, 49.4 -0.5 M49.63 1.61 C49.77 9.47, 48.53 21.27, 46.94 42.26 M48.94 0.37 C48.09 10.12, 48.69 20.75, 48.2 41.37 M48.15 43.89 C31.57 39.75, 11.9 43.2, -0.03 41.21 M48.7 41.46 C33.74 41.45, 18.05 41.86, -0.59 42.43 M-0.26 42.37 C-1.32 28.68, 1.44 17.41, -1.15 -0.46 M-0.6 42.46 C0.84 25.77, 0.35 10.43, 0.43 0.16" stroke="#000000" stroke-width="1" fill="none"></path></g><g transform="translate(85.0117289884613 369.3046186800545) rotate(0 18.5 13)"><text x="18.5" y="18" font-family="Virgil, Segoe UI Emoji" font-size="20px" fill="#000000" text-anchor="middle" style="white-space: pre;" direction="ltr">LSP</text></g><g stroke-opacity="0.8" fill-opacity="0.8" stroke-linecap="round" transform="translate(69.78103810534185 437.58187283209077) rotate(0 125.5 56.222222222222285)"><path d="M0.49 1.18 C79.29 1.81, 157.33 1.28, 251.91 -0.5 M-0.48 0.25 C69.13 -1.74, 137.93 -1.11, 250.46 0.13 M249.06 0.27 C250.83 36.07, 250.64 73.66, 249.96 110.62 M251.61 0.99 C250.81 24.29, 252.1 49.15, 251.88 112.78 M250.63 113.29 C150.36 113.55, 52.67 111.38, 1.4 113.23 M250.56 112.67 C154.45 114.31, 59.4 114.34, -0.57 112.29 M-0.53 111.19 C0.14 78.63, 1.31 44.43, -1.44 0.98 M-0.05 112.92 C-0.33 78.28, -1.28 45.12, -0.47 0.9" stroke="#000000" stroke-width="1" fill="none"></path></g><g stroke-opacity="0.8" fill-opacity="0.8" transform="translate(102.78103810534185 452.5775993278173) rotate(0 94 22)"><text x="0" y="31" font-family="Virgil, Segoe UI Emoji" font-size="33.92307692307694px" fill="#000000" text-anchor="start" style="white-space: pre;" direction="ltr">SESSION C</text></g><g stroke-linecap="round" transform="translate(114.98357236645734 495.67197085191106) rotate(0 81.57429215735397 21.586319218241044)"><path d="M0.79 0.12 C35.38 -1.71, 71.79 -1.8, 162.63 -1.42 M0.47 -0.69 C58.9 -0.41, 116.06 -0.34, 163.5 -1 M164.1 -1.67 C163.49 15.03, 161.69 31.85, 161.54 44.04 M162.47 -0.39 C164.02 15, 164.29 30.71, 164.12 43.41 M161.89 43.98 C111.76 42.17, 59.9 44.99, 1.64 41.96 M162.38 43.28 C100.31 43.77, 36.17 43.44, -0.03 42.32 M-0.81 42.76 C0.47 32.18, -1.32 24.58, -0.05 1.77 M0.67 42.47 C-0.26 31.72, -0.45 22, 0.33 -0.29" stroke="#000000" stroke-width="1" fill="none"></path></g><g transform="translate(133.15954817313332 508.3293865159137) rotate(0 67 11.5)"><text x="0" y="16" font-family="Virgil, Segoe UI Emoji" font-size="17.802703140890557px" fill="#000000" text-anchor="start" style="white-space: pre;" direction="ltr">/code/project-c</text></g><g stroke-linecap="round"><g transform="translate(471.204115028419 428.19298394320185) rotate(0 -74.4180135587277 -33.77636975273495)"><path d="M0.41 0.77 C-24.13 -10.73, -123.38 -56.86, -148.2 -68.32 M-0.83 0.13 C-25.46 -11.25, -124.47 -55.82, -149.25 -66.96" stroke="#000000" stroke-width="1" fill="none"></path></g><g transform="translate(471.204115028419 428.19298394320185) rotate(0 -74.4180135587277 -33.77636975273495)"><path d="M-118.05 -65.07 C-126.46 -65.95, -132.48 -64, -150.96 -65.14 M-119.16 -64.39 C-129.76 -65.38, -138.84 -66.63, -149.28 -66.11" stroke="#000000" stroke-width="1" fill="none"></path></g><g transform="translate(471.204115028419 428.19298394320185) rotate(0 -74.4180135587277 -33.77636975273495)"><path d="M-126.47 -46.36 C-133.13 -51.37, -137.31 -53.54, -150.96 -65.14 M-127.58 -45.67 C-135.42 -53.07, -141.64 -60.66, -149.28 -66.11" stroke="#000000" stroke-width="1" fill="none"></path></g></g><g stroke-linecap="round"><g transform="translate(462.204115028419 188.1929839432018) rotate(0 -70.24187158095185 13.890749500887466)"><path d="M-0.22 -0.2 C-23.29 4.55, -116.06 22.85, -139.55 27.74 M-1.79 -1.36 C-24.89 3.64, -117.42 24.35, -140.27 29.14" stroke="#000000" stroke-width="1" fill="none"></path></g><g transform="translate(462.204115028419 188.1929839432018) rotate(0 -70.24187158095185 13.890749500887466)"><path d="M-115.24 13.86 C-120.76 14.49, -123.76 20.46, -139.29 27.41 M-114.41 12.35 C-121.67 18.68, -129.81 22.12, -139.69 29.75" stroke="#000000" stroke-width="1" fill="none"></path></g><g transform="translate(462.204115028419 188.1929839432018) rotate(0 -70.24187158095185 13.890749500887466)"><path d="M-110.88 33.91 C-117.18 30.34, -121.1 32.11, -139.29 27.41 M-110.05 32.4 C-118.76 32.65, -128.23 29.99, -139.69 29.75" stroke="#000000" stroke-width="1" fill="none"></path></g></g><g stroke-linecap="round"><g transform="translate(471.204115028419 314.1929839432018) rotate(0 -75.71766382937312 -34.24204480424521)"><path d="M-0.81 0.49 C-25.94 -11.17, -126.57 -57.22, -151.65 -68.98 M0.97 -0.3 C-24.21 -11.83, -126.98 -55.92, -152.41 -67.43" stroke="#000000" stroke-width="1" fill="none"></path></g><g transform="translate(471.204115028419 314.1929839432018) rotate(0 -75.71766382937312 -34.24204480424521)"><path d="M-121.65 -64.89 C-129.27 -64.86, -137.92 -67.12, -150.55 -67.52 M-121.72 -65.83 C-130.17 -66.55, -136.69 -66.83, -152.97 -67.55" stroke="#000000" stroke-width="1" fill="none"></path></g><g transform="translate(471.204115028419 314.1929839432018) rotate(0 -75.71766382937312 -34.24204480424521)"><path d="M-129.91 -46.1 C-135.8 -50.31, -142.56 -56.85, -150.55 -67.52 M-129.98 -47.04 C-136.55 -52.37, -141.05 -57.24, -152.97 -67.55" stroke="#000000" stroke-width="1" fill="none"></path></g></g></svg>